<svg version="1.1" id="Layer_1" xmlns="http://www.w3.org/2000/svg" x="0" y="0" viewBox="0 0 2160 3086" style="enable-background:new 0 0 2160 3086" xml:space="preserve"><style>.st0{fill:url(#a)}.st1{fill:#0f0}.st3{fill:#fff}</style><linearGradient id="a" gradientUnits="objectBoundingBox" x1="0" y1="0" x2="1" y2="1"><stop offset="0" stop-color="#00f"><animate attributeName="stop-color" values="blue;green;white;green;blue;" dur="20s" repeatCount="indefinite"/></stop><stop offset=".5" stop-color="green"><animate attributeName="stop-color" values="green;blue;white;blue;green;" dur="20s" repeatCount="indefinite"/></stop><animateTransform attributeName="gradientTransform" type="rotate" from="0 .5 .5" to="360 .5 .5" dur="20s" repeatCount="indefinite"/></linearGradient><path d="M0 0h2160v3085.86H0z"/><path class="st0" d="M1465.71 308.46h77.14v77.15h-77.14zm462.86 0h77.14v77.15h-77.14zM617.14 694.21h77.14v77.15h-77.14z"/><path class="st1" d="M1620 771.36h77.14v77.15H1620zm-694.29 231.45h77.14v77.15h-77.14z"/><path class="st0" d="M1388.57 1157.11h77.14v77.15h-77.14zm-1080 385.75h77.14v77.15h-77.14zm1620 462.9h77.14v77.15h-77.14zm-1080 231.45h77.14v77.15h-77.14z"/><path class="st1" d="M385.71 2314.36h77.14v77.15h-77.14zm1157.15 77.15H1620v77.15h-77.14zM1080 2622.96h77.14v77.15H1080z"/><path class="st0" d="M1542.86 2777.26H1620v77.15h-77.14z"/><path d="M231.43 154.3h77.14v77.15h-77.14zm77.14 77.15h77.14v77.15h-77.14zm617.14 2160.2h77.15v77.15h-77.15zM1080 1234.4h77.14v77.15H1080zm848.57-77.15h77.14v77.15h-77.14zM1080 2160.2h77.14v77.15H1080zM179.57 231.45H77.14v77.15h154.29v-77.15h-51.86zM1620 1851.6h77.14v77.15H1620zm308.57-1002.95h77.14v77.15h-77.14zM77.14 1311.55h77.15v77.15H77.14zm231.43-308.6h77.14v77.15h-77.14zm1620 308.6h77.14v77.15h-77.14zM1311.43 154.3h77.14v77.15h-77.14zm-540 617.2h77.14v77.15h-77.14zm77.14-231.45h77.14v77.15h-77.14zM1080 617.2h77.14v77.15H1080zM771.43 462.9h77.14v77.15h-77.14zM1080 540.05h77.14v-154.3H1080v154.3zm308.57-77.15h77.14v77.15h-77.14zM1080 771.5h77.14v77.15H1080zm308.57-694.35h77.14v77.15h-77.14z" style="fill:none"/><path class="st3" d="M154.28.07V0H77.14v77.15h77.14V.07zm694.29 0V0h-77.14v77.15h77.14V.07zm154.28 0V0h-77.14v77.15h77.14V.07zM1157.14 0H1080v77.15h77.14V0zm154.29 0h-77.14v77.15h77.14V0zm385.71.07v77.08h77.14V0h-77.14v.07zm385.71 0V0h-77.14v77.15h77.14V.07zM0 77.15h77.14v77.15H0zm385.71 0h77.14v77.15h-77.14zm462.86 0h77.14v77.15h-77.14zm154.29 0H1080v77.15h-77.14zm154.28 0h77.14v77.15h-77.14zm154.29 0h77.14v77.15h-77.14zm77.14 77.15h77.14v77.15h-77.14z"/><path class="st3" d="M1311.43 231.45h77.14v77.15h-77.14zM1465.71.07V0h-77.14v77.15h77.14V.07zm0 77.08h77.14v77.15h-77.14zM1620 154.3v77.15h77.14V77.15H1620v77.15zm308.57 77.15h154.28V154.3h-77.14V77.15h-77.14v77.15h-77.14V77.15h-77.14v154.3h154.28zm154.29-154.3H2160v77.15h-77.14zM179.57 231.45h51.86V154.3h77.14V77.15H154.29v77.15H77.14v77.15h102.43zm129-77.15h77.14v77.15h-77.14zm154.29 0H540v77.15h-77.14zm462.85 0h77.14v77.15h-77.14zm308.58 0h77.14v77.15h-77.14zM0 231.45h77.14v77.15H0zm231.43 0h77.14v77.15h-77.14zm154.28 0h77.14v77.15h-77.14zm462.86 0h77.14v77.15h-77.14zm848.57 0h77.14v77.15h-77.14zm385.72 0H2160v77.15h-77.14zM127.57 308.6H77.14v77.15h154.29V308.6H127.57zm181 0h77.14v77.15h-77.14zm154.29 0H540v77.15h-77.14zm462.85 0h77.14v77.15h-77.14zm154.29 0h77.14v77.15H1080zm154.29 0h77.14v77.15h-77.14zm385.71 0h77.14v77.15H1620zm154.29 0h77.14v77.15h-77.14zm231.42 0h77.14v77.15h-77.14zM0 385.75h77.14v77.15H0zm385.71 0h77.14v77.15h-77.14zm385.72 0h77.14v77.15h-77.14z"/><path class="st3" d="M1157.14 462.9v77.15H1080v-154.3h-77.14v154.3H1080v77.15h77.14v-77.15h77.14v-154.3h-77.14v77.15zm925.72-77.15H2160v77.15h-77.14zM308.57 540.05h-77.14v77.15h77.14v-77.15h77.14v77.15h77.14v-77.15h-77.14V462.9h-77.14zm154.29-77.15H540v77.15h-77.14zm925.71-77.15h77.14v77.15h-77.14zm77.14 154.3h-77.14V462.9h-77.14v77.15h-77.14v77.15h77.14v-77.15h77.14v77.15h77.14v-77.15h77.14V462.9h-77.14zM1928.57 1543v-77.15h77.14v154.3h77.14v-154.3h-77.14v-77.15h-77.14v-77.15h77.14v-77.15h-77.14v-77.15h77.14v-77.15h-77.14v-77.15h154.28V771.5h-154.28v-77.15h154.28V617.2h-154.28v-77.15h154.28V462.9h-154.28v-77.15h-77.14v77.15h77.14v77.15h-77.14v77.15h77.14v77.15h-77.14v77.15h77.14v77.15h-77.14v77.15h77.14v77.15h-77.14v77.15h77.14v77.15h-77.14v77.15h77.14v77.15h-77.14v77.15h77.14v77.15h-77.14v154.3h77.14V1543zm0-694.35h77.14v77.15h-77.14v-77.15zM0 540.05h77.14v77.15H0zm617.14 0h77.14v77.15h-77.14zm1465.72 0H2160v77.15h-77.14zM1002.85 617.2v-77.15h-77.14V462.9h-77.14v77.15h-77.14V462.9h-77.14v77.15h77.14v77.15h-77.14v77.15h77.14v77.15h-77.14v77.15h77.14V771.5h77.14v77.15h77.14V771.5h77.14v-77.15H1080V617.2h-77.15zm-77.14 0h-77.14v-77.15h77.14v77.15zm231.43 0h77.14v77.15h-77.14zM0 694.35h77.14v77.15H0zm385.71 77.15h-77.14v-77.15h-77.14v77.15h77.14v77.15h77.14V771.5h77.14v-77.15h-77.14zm694.29 0h-77.14v77.15H1080V771.5h77.14v77.15h77.14V771.5h-77.14v-77.15H1080zm617.14-77.15h77.14v77.15h-77.14zM0 848.65h77.14v77.15H0zm771.43 77.15h77.14v77.15h77.14V925.8h-77.14v-77.15h-77.14zm308.57 0h-77.14v77.15H1080V925.8h77.14v77.15h77.14V925.8h-77.14v-77.15H1080zm385.71-77.15V771.5h-77.14v-77.15h-77.14v77.15h77.14v77.15zm-154.28 77.15h77.14v77.15h77.14V925.8h-77.14v-77.15h-77.14zm385.71-77.15h77.14v77.15h-77.14zM308.57 925.8v77.15h77.14V925.8h77.14v-77.15h-77.14v77.15zM0 1002.95h77.14v77.15H0zm231.43 0h77.14v77.15h-77.14zm154.28 0h77.14v77.15h-77.14zm154.29 0h77.14v77.15H540zm694.29 0h77.14v77.15h-77.14zm462.85 0h77.14v77.15h-77.14zM308.57 1080.1h77.14v77.15h-77.14zm308.57 0h77.14v77.15h-77.14zm231.43 0h77.14v77.15h-77.14zm154.29 0H1080v77.15h-77.14zm154.28 0h77.14v77.15h-77.14zm154.29 0h77.14v77.15h-77.14zm154.28 0h77.14v77.15h-77.14zM0 1157.25h77.14v77.15H0zm385.71 0h77.14v77.15h-77.14zm154.29 0h77.14v77.15H540zm154.29 0h77.14v77.15h-77.14zm231.42 0h77.14v77.15h-77.14zm154.29 0h77.14v77.15H1080zm617.14 0h77.14v77.15h-77.14z"/><path class="st3" d="M2005.71 1157.25h77.14v77.15h-77.14zM617.14 1234.4h77.14v77.15h-77.14zm231.43 0h77.14v77.15h-77.14zm154.29 0H1080v77.15h-77.14zm154.28 0h77.14v77.15h-77.14zM0 1311.55h77.14v77.15H0zm385.71 0h77.14v77.15h-77.14zm308.58 0h77.14v77.15h-77.14zm385.71 0h77.14v77.15H1080zm308.57 0v-77.15h-77.14v154.3h77.14v-77.15zm308.57 0h77.14v77.15h-77.14zm308.57 0h77.14v77.15h-77.14zM617.14 1388.7h77.14v77.15h-77.14z"/><path class="st3" d="M848.57 1465.85v-77.15h-77.14v77.15h-77.14V1543h77.14v-77.15zm154.28-154.3h-77.14v308.6h77.14v-154.3H1080v-77.15h-77.15v-77.15zm231.44 77.15h77.14v77.15h-77.14zm154.28 77.15h77.14V1543h-77.14zm154.29 0H1620V1543h-77.14zm154.28 0h77.14V1543h-77.14zM540 1543h77.14v77.15H540zm231.43 0h77.14v77.15h-77.14zm694.28 0h77.14v77.15h-77.14zm154.29 0h77.14v77.15H1620zm-1388.57 77.15V1234.4H77.14v77.15h77.15v77.15H77.14v77.15h77.15v308.6h77.14v-154.3zm154.28 0h77.14v77.15h-77.14zm462.86 0h77.14v77.15h-77.14zm231.43 0h77.14v77.15H1080zm308.57 0h77.14v77.15h-77.14zm154.29 0H1620v77.15h-77.14zm231.43 0h77.14v77.15h-77.14zM540 1697.3h77.14v77.15H540zm154.29 0h77.14v77.15h-77.14zm283.28 77.15H1080v-77.15H925.71v77.15h51.86zm951 154.3h77.14v-77.15h77.14v-77.15h-77.14v-77.15h-77.14v231.45h-77.14v77.15h77.14v-77.15zM77.14 1774.45h77.14v77.15H77.14zm848.57 77.15h77.14v77.15h-77.14zm-77.14-77.15h77.14v77.15h-77.14zm617.14 77.15h77.14v-154.3h-77.14v154.3zm231.43 0h77.14v77.15h-77.14zm-154.28 0H1620v77.15h-77.14zm77.14-77.15h77.14v77.15H1620zm154.29 0h77.14v77.15h-77.14zm308.57 0H2160v77.15h-77.14zm-1851.43 0h77.14v77.15h-77.14zm-77.14 77.15h77.14v77.15h-77.14zm154.28 0h77.14v77.15h-77.14zm231.43 0h77.14v77.15H540zm154.29 0h77.14v77.15h-77.14zm385.71 77.15h77.14v-154.3H1080v154.3zm-694.29 0h77.14v77.15h-77.14zm462.86 77.15H694.29v154.3h77.14v-77.15h77.14v77.15h77.14v-77.15h77.14v-77.15h-77.14v-77.15h-77.14v77.15zm617.14-77.15h77.14v77.15h-77.14zm154.29 0h77.14v77.15H1620z"/><path class="st3" d="M2005.71 1928.75h77.14v77.15h-77.14zm77.15 0H2160v77.15h-77.14zm-1620 77.15H540v77.15h-77.14zm694.28 0H1080v77.15h-77.14v231.45h-77.15v77.15h77.15v77.15h-77.15v77.15h77.15v77.15H1080v-77.15h77.14v-77.15h77.14v-154.3h-77.14v77.15H1080v-77.15h77.14v-77.15H1080v-77.15h77.14v77.15h77.14v-154.3h-77.14v-77.15zm77.15 0h77.14v77.15h-77.14zm154.28 0h77.14v77.15h-77.14z"/><path class="st3" d="M1311.43 2160.2v77.15h154.28v-77.15h-77.14v-77.15h-77.14v77.15zm231.43-154.3H1620v77.15h-77.14zm231.43 0h77.14v77.15h-77.14zm-1465.72 77.15h77.14v77.15h-77.14zm231.43 0h77.14v77.15H540zm925.71 0h77.14v77.15h-77.14zm385.72 0h77.14v77.15h-77.14zm231.43 0H2160v77.15h-77.14zM231.43 2160.2h-77.14v77.15h154.28v-77.15h-77.14zm154.28 0h77.14v77.15h-77.14zm231.43 0h77.14v77.15h-77.14zm1002.86 0h77.14v77.15H1620zm308.57 0v77.15h154.28v-77.15h-154.28zM77.14 2237.35h77.14v77.15H77.14zm231.43 0h77.14v77.15h-77.14zm154.29 0H540v77.15h-77.14zm231.43 0h77.14v77.15h-77.14zm540 0h77.14v77.15h-77.14zm308.57 0H1620v77.15h-77.14zm540 0H2160v77.15h-77.14zM0 2314.5h77.14v77.15H0zm231.43 0h77.14v77.15h-77.14zm385.71 0h77.14v77.15h-77.14zm154.29 0h77.14v77.15h-77.14zm694.28 0h77.14v77.15h-77.14zm154.29 0h77.14v77.15H1620zm154.29 0h77.14v77.15h-77.14z"/><path class="st3" d="M1928.57 2468.8v77.15h77.14v-77.15h-77.14v-77.15h154.28v-77.15h-154.28v77.15h-77.14v77.15h77.14zm-1793-77.15H77.14v231.45h77.14v-154.3h77.15v-77.15h-95.86zm173 0h77.14v77.15h-77.14zm154.29 0H540v77.15h-77.14zm385.71 0h77.14v77.15h-77.14zm540 0v-77.15h-77.14v154.3h77.14v-77.15zM385.71 2468.8h77.14v77.15h-77.14zm231.43 0h77.14v77.15h-77.14zm617.15 0h77.14v77.15h-77.14zm385.71 0h77.14v77.15H1620zm-462.86 77.15h77.14v77.15h-77.14zm154.29 0h77.14v77.15h-77.14zm154.28 0h77.14v77.15h-77.14z"/><path class="st3" d="M2082.85 2545.95h-77.14v77.15h-77.14v-77.15h-77.14v77.15h77.14v77.15h154.29v77.15H2160v-154.3h-77.15v-77.15zM0 2623.1h77.14v77.15H0zm385.71 0v-77.15h-77.14v154.3h77.14v-77.15zm231.43 0h77.14v77.15h-77.14zm308.57 0h77.14v77.15h-77.14zm308.58 0h77.14v77.15h-77.14zm308.57 0H1620v77.15h-77.14zm154.28 0h77.14v77.15h-77.14zm-1581.57 77.15H77.14v77.15h154.29v-77.15H115.57zm270.14 0h77.14v77.15h-77.14zm154.29 0h77.14v77.15H540zm308.57 0h77.14v77.15h-77.14zm154.29 0H1080v77.15h-77.14zm308.57 0h77.14v77.15h-77.14zm154.28 0h77.14v77.15h-77.14zm308.58 0h77.14v77.15h-77.14zM0 2777.4h77.14v77.15H0zm462.86 0H540v77.15h-77.14zm154.28 0h77.14v77.15h-77.14zm308.57 0h77.14v77.15h-77.14zm308.58 0h77.14v77.15h-77.14zM135.57 2931.7h95.86v-77.15H77.14v77.15h58.43zm173-77.15h77.14v77.15h-77.14zm385.72 0h77.14v77.15h-77.14zm154.28 0h77.14v77.15h-77.14zm154.29 0H1080v77.15h-77.14zm154.28 0h77.14v77.15h-77.14z"/><path class="st3" d="M1465.71 2931.7h-77.14v-77.15h-77.14v77.15h-77.14v77.15h231.42V3086h77.14v-231.45h-77.14v77.15zm617.15-77.15H2160v77.15h-77.14zM0 2931.7h77.14v77.15H0zm925.71 0h77.14v77.15h-77.14zm154.29 0h77.14v77.15H1080zm848.57 0h-77.14v-77.15h-77.14V3086h77.14v-77.15h77.14V3086h77.14v-77.15h-77.14v-77.15z"/><path class="st3" d="M2005.71 2931.7h77.14v77.15h-77.14zM848.57 3085.93v.07h77.14v-77.15h-77.14v77.08zm154.29 0v.07H1080v-77.15h-77.14v77.08zm154.28 0v.07h77.14v-77.15h-77.14v77.08zm925.72 0v.07H2160v-77.15h-77.14v77.08z"/><path d="M694.29 77.15H540v77.15h154.29v77.15h77.14V77.15h-53.78zM1080 154.3h77.14v77.15H1080zm-540 77.15h77.14v77.15H540zm462.86 0H1080v77.15h-77.14zm154.28 0h77.14v77.15h-77.14zM669.65 308.6h-52.51v154.3h77.14v-77.15h77.15V308.6h-77.15zM154.28 540.05h77.15V462.9H77.14v77.15h55.51zm1542.86-77.15H1620v77.15h77.14v77.15h77.14v-77.15h-77.14zM154.28 694.35h77.15V617.2H77.14v77.15h55.51zM1620 617.2h77.14v77.15H1620zm462.86 77.15H2160v77.15h-77.14zM154.28 848.65h77.15V771.5H77.14v77.15h55.51zm462.86 0h77.14v77.15h-77.14zm-462.86 154.3h77.15V925.8H77.14v77.15h55.51zm540.01 0v77.15h77.14V925.8h-77.14zM1620 925.8h77.14v77.15H1620zm154.29 0h77.14v77.15h-77.14zm308.57 154.3v77.15H2160v-154.3h-77.14zm-1851.43 0H77.14v77.15h154.29zm1388.57 0h77.14v77.15H1620zm154.29 0h77.14v77.15h-77.14zm-308.58 231.45v154.3h77.14V1234.4h-77.14zM1620 1234.4h77.14v77.15H1620zm154.29 0h77.14v77.15h-77.14zm308.57 0H2160v77.15h-77.14zM540 1311.55h77.14v77.15H540zm1542.86 77.15H2160v77.15h-77.14zm-1697.15 77.15h77.14V1543h-77.14zm694.29 0h77.14V1543H1080zm77.14 77.15h77.14v77.15h-77.14zm77.15 77.15h77.14v77.15h-77.14zm848.57 0H2160v77.15h-77.14zM77.14 1697.3v-231.45H0v308.6h77.14zm1080 0h77.14v77.15h-77.14zm154.29 0h77.14v77.15h-77.14zm-77.14 77.15h77.14v77.15h-77.14zM77.14 1851.6H0v154.3h154.28v-77.15H77.14zm1080 77.15v77.15h77.14v-154.3h-77.14zm-848.57 77.15v-77.15h-77.14v77.15h-77.14v77.15h154.28zM0 2083.05v77.15h154.28v-77.15H77.14zm1697.14 0h77.14v77.15h-77.14zm77.15 77.15h77.14v77.15h-77.14zm77.14 77.15h77.14v77.15h-77.14zm-1157.14 154.3h77.14v77.15h-77.14zm1002.85 0h77.14v77.15h-77.14zm385.72 0H2160v77.15h-77.14zm-1928.57 154.3h77.14v77.15h-77.14zm1002.85 154.3h77.14v77.15h-77.14zm462.86 0h77.14v77.15H1620zm77.14 77.15h77.14v77.15h-77.14zm231.43 0v77.15h154.28v-77.15h-77.14zM1620 2901.83V3086h77.14v-231.45H1620zM154.29 2931.7h77.14v77.15h-77.14zm385.71 0H308.57v77.15h385.71v-77.15h-77.14zm-462.86 77.15h77.14V3086H77.14zm617.15 0h77.14V3086h-77.14z" style="fill:#555"/></svg>